<?xml version="1.0" encoding="utf-8" standalone="no"?>
<!DOCTYPE svg PUBLIC "-//W3C//DTD SVG 1.1//EN"
  "http://www.w3.org/Graphics/SVG/1.1/DTD/svg11.dtd">
<svg xmlns:xlink="http://www.w3.org/1999/xlink" width="365.382pt" height="281.725pt" viewBox="0 0 365.382 281.725" xmlns="http://www.w3.org/2000/svg" version="1.1">
 <metadata>
  <rdf:RDF xmlns:dc="http://purl.org/dc/elements/1.1/" xmlns:cc="http://creativecommons.org/ns#" xmlns:rdf="http://www.w3.org/1999/02/22-rdf-syntax-ns#">
   <cc:Work>
    <dc:type rdf:resource="http://purl.org/dc/dcmitype/StillImage"/>
    <dc:date>2022-10-16T15:27:43.250703</dc:date>
    <dc:format>image/svg+xml</dc:format>
    <dc:creator>
     <cc:Agent>
      <dc:title>Matplotlib v3.5.2, https://matplotlib.org/</dc:title>
     </cc:Agent>
    </dc:creator>
   </cc:Work>
  </rdf:RDF>
 </metadata>
 <defs>
  <style type="text/css">*{stroke-linejoin: round; stroke-linecap: butt}</style>
 </defs>
 <g id="figure_1">
  <g id="patch_1">
   <path d="M 0 281.725 
L 365.382 281.725 
L 365.382 0 
L 0 0 
L 0 281.725 
z
" style="fill: none"/>
  </g>
  <g id="axes_1">
   <g id="patch_2">
    <path d="M 204.315 107.432 
C 205.288826 107.432 206.222897 107.045095 206.911496 106.356496 
C 207.600095 105.667897 207.987 104.733826 207.987 103.76 
C 207.987 102.786174 207.600095 101.852103 206.911496 101.163504 
C 206.222897 100.474905 205.288826 100.088 204.315 100.088 
C 203.341174 100.088 202.407103 100.474905 201.718504 101.163504 
C 201.029905 101.852103 200.643 102.786174 200.643 103.76 
C 200.643 104.733826 201.029905 105.667897 201.718504 106.356496 
C 202.407103 107.045095 203.341174 107.432 204.315 107.432 
L 204.315 107.432 
z
" clip-path="url(#p475d3313d6)" style="fill: none; stroke: #000000; stroke-width: 2; stroke-linejoin: miter"/>
   </g>
   <g id="patch_3">
    <path d="M 81.915 38.582 
C 82.888826 38.582 83.822897 38.195095 84.511496 37.506496 
C 85.200095 36.817897 85.587 35.883826 85.587 34.91 
C 85.587 33.936174 85.200095 33.002103 84.511496 32.313504 
C 83.822897 31.624905 82.888826 31.238 81.915 31.238 
C 80.941174 31.238 80.007103 31.624905 79.318504 32.313504 
C 78.629905 33.002103 78.243 33.936174 78.243 34.91 
C 78.243 35.883826 78.629905 36.817897 79.318504 37.506496 
C 80.007103 38.195095 80.941174 38.582 81.915 38.582 
L 81.915 38.582 
z
" clip-path="url(#p475d3313d6)" style="fill: none; stroke: #000000; stroke-width: 2; stroke-linejoin: miter"/>
   </g>
   <g id="patch_4">
    <path d="M 143.115 153.332 
C 144.088826 153.332 145.022897 152.945095 145.711496 152.256496 
C 146.400095 151.567897 146.787 150.633826 146.787 149.66 
C 146.787 148.686174 146.400095 147.752103 145.711496 147.063504 
C 145.022897 146.374905 144.088826 145.988 143.115 145.988 
C 142.141174 145.988 141.207103 146.374905 140.518504 147.063504 
C 139.829905 147.752103 139.443 148.686174 139.443 149.66 
C 139.443 150.633826 139.829905 151.567897 140.518504 152.256496 
C 141.207103 152.945095 142.141174 153.332 143.115 153.332 
L 143.115 153.332 
z
" clip-path="url(#p475d3313d6)" style="fill: none; stroke: #000000; stroke-width: 2; stroke-linejoin: miter"/>
   </g>
   <g id="patch_5">
    <path d="M 81.915 130.382 
C 82.888826 130.382 83.822897 129.995095 84.511496 129.306496 
C 85.200095 128.617897 85.587 127.683826 85.587 126.71 
C 85.587 125.736174 85.200095 124.802103 84.511496 124.113504 
C 83.822897 123.424905 82.888826 123.038 81.915 123.038 
C 80.941174 123.038 80.007103 123.424905 79.318504 124.113504 
C 78.629905 124.802103 78.243 125.736174 78.243 126.71 
C 78.243 127.683826 78.629905 128.617897 79.318504 129.306496 
C 80.007103 129.995095 80.941174 130.382 81.915 130.382 
L 81.915 130.382 
z
" clip-path="url(#p475d3313d6)" style="fill: none; stroke: #000000; stroke-width: 2; stroke-linejoin: miter"/>
   </g>
   <g id="patch_6">
    <path d="M 265.515 222.182 
C 266.488826 222.182 267.422897 221.795095 268.111496 221.106496 
C 268.800095 220.417897 269.187 219.483826 269.187 218.51 
C 269.187 217.536174 268.800095 216.602103 268.111496 215.913504 
C 267.422897 215.224905 266.488826 214.838 265.515 214.838 
C 264.541174 214.838 263.607103 215.224905 262.918504 215.913504 
C 262.229905 216.602103 261.843 217.536174 261.843 218.51 
C 261.843 219.483826 262.229905 220.417897 262.918504 221.106496 
C 263.607103 221.795095 264.541174 222.182 265.515 222.182 
L 265.515 222.182 
z
" clip-path="url(#p475d3313d6)" style="fill: none; stroke: #000000; stroke-width: 2; stroke-linejoin: miter"/>
   </g>
   <g id="patch_7">
    <path d="M 143.115 210.707 
C 144.088826 210.707 145.022897 210.320095 145.711496 209.631496 
C 146.400095 208.942897 146.787 208.008826 146.787 207.035 
C 146.787 206.061174 146.400095 205.127103 145.711496 204.438504 
C 145.022897 203.749905 144.088826 203.363 143.115 203.363 
C 142.141174 203.363 141.207103 203.749905 140.518504 204.438504 
C 139.829905 205.127103 139.443 206.061174 139.443 207.035 
C 139.443 208.008826 139.829905 208.942897 140.518504 209.631496 
C 141.207103 210.320095 142.141174 210.707 143.115 210.707 
L 143.115 210.707 
z
" clip-path="url(#p475d3313d6)" style="fill: none; stroke: #000000; stroke-width: 2; stroke-linejoin: miter"/>
   </g>
   <g id="line2d_1">
    <path d="M 307.743 182.1725 
L 308.723274 182.141065 
L 309.699521 182.046887 
L 310.667727 181.890355 
L 311.623915 181.672111 
L 312.564156 181.393053 
L 313.484585 181.054326 
L 314.381421 180.657324 
L 315.250979 180.203676 
L 316.089684 179.695248 
L 316.894091 179.134128 
L 317.660894 178.522623 
L 318.386943 177.863245 
L 319.069253 177.158704 
L 319.705022 176.411894 
L 320.291635 175.625885 
L 320.826684 174.803906 
L 321.307969 173.949336 
L 321.733513 173.065685 
L 322.101567 172.156585 
L 322.410618 171.225772 
L 322.659397 170.27707 
L 322.846881 169.314378 
L 322.9723 168.341652 
L 323.035139 167.362889 
L 323.035139 166.382111 
L 322.9723 165.403348 
L 322.846881 164.430622 
L 322.659397 163.46793 
L 322.410618 162.519228 
L 322.101567 161.588415 
L 321.733513 160.679315 
L 321.307969 159.795664 
L 320.826684 158.941094 
L 320.291635 158.119115 
L 319.705022 157.333106 
L 319.069253 156.586296 
L 318.386943 155.881755 
L 317.660894 155.222377 
L 316.894091 154.610872 
L 316.089684 154.049752 
L 315.250979 153.541324 
L 314.381421 153.087676 
L 313.484585 152.690674 
L 312.564156 152.351947 
L 311.623915 152.072889 
L 310.667727 151.854645 
L 309.699521 151.698113 
L 308.723274 151.603935 
L 307.743 151.5725 
L 307.743 151.5725 
L 287.853 151.5725 
L 287.853 166.8725 
L 287.853 182.1725 
L 307.743 182.1725 
" clip-path="url(#p475d3313d6)" style="fill: none; stroke: #000000; stroke-width: 2; stroke-linecap: round"/>
   </g>
   <g id="line2d_2">
    <path d="M 277.143 174.5225 
L 287.853 174.5225 
" clip-path="url(#p475d3313d6)" style="fill: none; stroke: #000000; stroke-width: 2; stroke-linecap: round"/>
   </g>
   <g id="line2d_3">
    <path d="M 277.143 159.2225 
L 287.853 159.2225 
" clip-path="url(#p475d3313d6)" style="fill: none; stroke: #000000; stroke-width: 2; stroke-linecap: round"/>
   </g>
   <g id="line2d_4">
    <path d="M 323.043 166.8725 
L 333.753 166.8725 
" clip-path="url(#p475d3313d6)" style="fill: none; stroke: #000000; stroke-width: 2; stroke-linecap: round"/>
   </g>
   <g id="line2d_5">
    <path d="M 246.543 130.535 
L 247.523274 130.503565 
L 248.499521 130.409387 
L 249.467727 130.252855 
L 250.423915 130.034611 
L 251.364156 129.755553 
L 252.284585 129.416826 
L 253.181421 129.019824 
L 254.050979 128.566176 
L 254.889684 128.057748 
L 255.694091 127.496628 
L 256.460894 126.885123 
L 257.186943 126.225745 
L 257.869253 125.521204 
L 258.505022 124.774394 
L 259.091635 123.988385 
L 259.626684 123.166406 
L 260.107969 122.311836 
L 260.533513 121.428185 
L 260.901567 120.519085 
L 261.210618 119.588272 
L 261.459397 118.63957 
L 261.646881 117.676878 
L 261.7723 116.704152 
L 261.835139 115.725389 
L 261.835139 114.744611 
L 261.7723 113.765848 
L 261.646881 112.793122 
L 261.459397 111.83043 
L 261.210618 110.881728 
L 260.901567 109.950915 
L 260.533513 109.041815 
L 260.107969 108.158164 
L 259.626684 107.303594 
L 259.091635 106.481615 
L 258.505022 105.695606 
L 257.869253 104.948796 
L 257.186943 104.244255 
L 256.460894 103.584877 
L 255.694091 102.973372 
L 254.889684 102.412252 
L 254.050979 101.903824 
L 253.181421 101.450176 
L 252.284585 101.053174 
L 251.364156 100.714447 
L 250.423915 100.435389 
L 249.467727 100.217145 
L 248.499521 100.060613 
L 247.523274 99.966435 
L 246.543 99.935 
L 246.543 99.935 
L 226.653 99.935 
L 226.653 115.235 
L 226.653 130.535 
L 246.543 130.535 
" clip-path="url(#p475d3313d6)" style="fill: none; stroke: #000000; stroke-width: 2; stroke-linecap: round"/>
   </g>
   <g id="line2d_6">
    <path d="M 215.943 122.885 
L 226.653 122.885 
" clip-path="url(#p475d3313d6)" style="fill: none; stroke: #000000; stroke-width: 2; stroke-linecap: round"/>
   </g>
   <g id="line2d_7">
    <path d="M 215.943 107.585 
L 226.653 107.585 
" clip-path="url(#p475d3313d6)" style="fill: none; stroke: #000000; stroke-width: 2; stroke-linecap: round"/>
   </g>
   <g id="line2d_8">
    <path d="M 261.843 115.235 
L 272.553 115.235 
" clip-path="url(#p475d3313d6)" style="fill: none; stroke: #000000; stroke-width: 2; stroke-linecap: round"/>
   </g>
   <g id="line2d_9">
    <path d="M 185.343 119.06 
L 186.323274 119.028565 
L 187.299521 118.934387 
L 188.267727 118.777855 
L 189.223915 118.559611 
L 190.164156 118.280553 
L 191.084585 117.941826 
L 191.981421 117.544824 
L 192.850979 117.091176 
L 193.689684 116.582748 
L 194.494091 116.021628 
L 195.260894 115.410123 
L 195.986943 114.750745 
L 196.669253 114.046204 
L 197.305022 113.299394 
L 197.891635 112.513385 
L 198.426684 111.691406 
L 198.907969 110.836836 
L 199.333513 109.953185 
L 199.701567 109.044085 
L 200.010618 108.113272 
L 200.259397 107.16457 
L 200.446881 106.201878 
L 200.5723 105.229152 
L 200.635139 104.250389 
L 200.635139 103.269611 
L 200.5723 102.290848 
L 200.446881 101.318122 
L 200.259397 100.35543 
L 200.010618 99.406728 
L 199.701567 98.475915 
L 199.333513 97.566815 
L 198.907969 96.683164 
L 198.426684 95.828594 
L 197.891635 95.006615 
L 197.305022 94.220606 
L 196.669253 93.473796 
L 195.986943 92.769255 
L 195.260894 92.109877 
L 194.494091 91.498372 
L 193.689684 90.937252 
L 192.850979 90.428824 
L 191.981421 89.975176 
L 191.084585 89.578174 
L 190.164156 89.239447 
L 189.223915 88.960389 
L 188.267727 88.742145 
L 187.299521 88.585613 
L 186.323274 88.491435 
L 185.343 88.46 
L 185.343 88.46 
L 165.453 88.46 
L 165.453 103.76 
L 165.453 119.06 
L 185.343 119.06 
" clip-path="url(#p475d3313d6)" style="fill: none; stroke: #000000; stroke-width: 2; stroke-linecap: round"/>
   </g>
   <g id="line2d_10">
    <path d="M 154.743 111.41 
L 165.453 111.41 
" clip-path="url(#p475d3313d6)" style="fill: none; stroke: #000000; stroke-width: 2; stroke-linecap: round"/>
   </g>
   <g id="line2d_11">
    <path d="M 154.743 96.11 
L 165.453 96.11 
" clip-path="url(#p475d3313d6)" style="fill: none; stroke: #000000; stroke-width: 2; stroke-linecap: round"/>
   </g>
   <g id="line2d_12">
    <path d="M 207.987 103.76 
L 211.353 103.76 
" clip-path="url(#p475d3313d6)" style="fill: none; stroke: #000000; stroke-width: 2; stroke-linecap: round"/>
   </g>
   <g id="line2d_13">
    <path d="M 124.143 73.16 
L 125.123274 73.128565 
L 126.099521 73.034387 
L 127.067727 72.877855 
L 128.023915 72.659611 
L 128.964156 72.380553 
L 129.884585 72.041826 
L 130.781421 71.644824 
L 131.650979 71.191176 
L 132.489684 70.682748 
L 133.294091 70.121628 
L 134.060894 69.510123 
L 134.786943 68.850745 
L 135.469253 68.146204 
L 136.105022 67.399394 
L 136.691635 66.613385 
L 137.226684 65.791406 
L 137.707969 64.936836 
L 138.133513 64.053185 
L 138.501567 63.144085 
L 138.810618 62.213272 
L 139.059397 61.26457 
L 139.246881 60.301878 
L 139.3723 59.329152 
L 139.435139 58.350389 
L 139.435139 57.369611 
L 139.3723 56.390848 
L 139.246881 55.418122 
L 139.059397 54.45543 
L 138.810618 53.506728 
L 138.501567 52.575915 
L 138.133513 51.666815 
L 137.707969 50.783164 
L 137.226684 49.928594 
L 136.691635 49.106615 
L 136.105022 48.320606 
L 135.469253 47.573796 
L 134.786943 46.869255 
L 134.060894 46.209877 
L 133.294091 45.598372 
L 132.489684 45.037252 
L 131.650979 44.528824 
L 130.781421 44.075176 
L 129.884585 43.678174 
L 128.964156 43.339447 
L 128.023915 43.060389 
L 127.067727 42.842145 
L 126.099521 42.685613 
L 125.123274 42.591435 
L 124.143 42.56 
L 124.143 42.56 
L 104.253 42.56 
L 104.253 57.86 
L 104.253 73.16 
L 124.143 73.16 
" clip-path="url(#p475d3313d6)" style="fill: none; stroke: #000000; stroke-width: 2; stroke-linecap: round"/>
   </g>
   <g id="line2d_14">
    <path d="M 93.543 65.51 
L 104.253 65.51 
" clip-path="url(#p475d3313d6)" style="fill: none; stroke: #000000; stroke-width: 2; stroke-linecap: round"/>
   </g>
   <g id="line2d_15">
    <path d="M 93.543 50.21 
L 104.253 50.21 
" clip-path="url(#p475d3313d6)" style="fill: none; stroke: #000000; stroke-width: 2; stroke-linecap: round"/>
   </g>
   <g id="line2d_16">
    <path d="M 139.443 57.86 
L 150.153 57.86 
" clip-path="url(#p475d3313d6)" style="fill: none; stroke: #000000; stroke-width: 2; stroke-linecap: round"/>
   </g>
   <g id="line2d_17">
    <path d="M 41.523 49.904 
L 58.571571 49.804082 
L 60.320143 49.504327 
L 62.068714 49.004735 
L 63.817286 48.305306 
L 65.565857 47.406041 
L 67.751571 46.000939 
L 69.937286 44.283592 
L 72.123 42.254 
L 74.308714 39.912163 
L 76.494429 37.258082 
L 78.243 34.91 
L 78.243 34.91 
L 75.620143 31.462816 
L 73.434429 28.933633 
L 71.248714 26.716694 
L 69.063 24.812 
L 66.877286 23.219551 
L 64.691571 21.939347 
L 62.943 21.14 
L 61.194429 20.54049 
L 59.445857 20.140816 
L 57.697286 19.94098 
L 56.823 19.916 
L 41.523 19.916 
L 41.523 19.916 
L 43.7262 22.364 
L 45.12156 24.2 
L 46.2966 26.036 
L 47.25132 27.872 
L 47.98572 29.708 
L 48.4998 31.544 
L 48.79356 33.38 
L 48.867 35.216 
L 48.72012 37.052 
L 48.35292 38.888 
L 47.7654 40.724 
L 46.95756 42.56 
L 45.9294 44.396 
L 44.68092 46.232 
L 43.21212 48.068 
L 41.523 49.904 
L 41.523 49.904 
" clip-path="url(#p475d3313d6)" style="fill: none; stroke: #000000; stroke-width: 2; stroke-linecap: round"/>
   </g>
   <g id="line2d_18">
    <path d="M 30.813 42.56 
L 46.95756 42.56 
" clip-path="url(#p475d3313d6)" style="fill: none; stroke: #000000; stroke-width: 2; stroke-linecap: round"/>
   </g>
   <g id="line2d_19">
    <path d="M 30.813 27.26 
L 46.95756 27.26 
" clip-path="url(#p475d3313d6)" style="fill: none; stroke: #000000; stroke-width: 2; stroke-linecap: round"/>
   </g>
   <g id="line2d_20">
    <path d="M 85.587 34.91 
L 88.953 34.91 
" clip-path="url(#p475d3313d6)" style="fill: none; stroke: #000000; stroke-width: 2; stroke-linecap: round"/>
   </g>
   <g id="line2d_21">
    <path d="M 93.543 50.21 
L 88.953 50.21 
L 88.953 34.91 
" clip-path="url(#p475d3313d6)" style="fill: none; stroke: #000000; stroke-width: 2; stroke-linecap: round"/>
   </g>
   <g id="line2d_22">
    <path d="M 41.523 95.804 
L 58.571571 95.704082 
L 60.320143 95.404327 
L 62.068714 94.904735 
L 63.817286 94.205306 
L 65.565857 93.306041 
L 67.751571 91.900939 
L 69.937286 90.183592 
L 72.123 88.154 
L 74.308714 85.812163 
L 76.494429 83.158082 
L 78.243 80.81 
L 78.243 80.81 
L 75.620143 77.362816 
L 73.434429 74.833633 
L 71.248714 72.616694 
L 69.063 70.712 
L 66.877286 69.119551 
L 64.691571 67.839347 
L 62.943 67.04 
L 61.194429 66.44049 
L 59.445857 66.040816 
L 57.697286 65.84098 
L 56.823 65.816 
L 41.523 65.816 
L 41.523 65.816 
L 43.7262 68.264 
L 45.12156 70.1 
L 46.2966 71.936 
L 47.25132 73.772 
L 47.98572 75.608 
L 48.4998 77.444 
L 48.79356 79.28 
L 48.867 81.116 
L 48.72012 82.952 
L 48.35292 84.788 
L 47.7654 86.624 
L 46.95756 88.46 
L 45.9294 90.296 
L 44.68092 92.132 
L 43.21212 93.968 
L 41.523 95.804 
L 41.523 95.804 
" clip-path="url(#p475d3313d6)" style="fill: none; stroke: #000000; stroke-width: 2; stroke-linecap: round"/>
   </g>
   <g id="line2d_23">
    <path d="M 36.933 95.804 
L 37.52052 95.192 
L 38.08356 94.58 
L 38.62212 93.968 
L 39.1362 93.356 
L 39.6258 92.744 
L 40.09092 92.132 
L 40.53156 91.52 
L 40.94772 90.908 
L 41.3394 90.296 
L 41.7066 89.684 
L 42.04932 89.072 
L 42.36756 88.46 
L 42.66132 87.848 
L 42.9306 87.236 
L 43.1754 86.624 
L 43.39572 86.012 
L 43.59156 85.4 
L 43.76292 84.788 
L 43.9098 84.176 
L 44.0322 83.564 
L 44.13012 82.952 
L 44.20356 82.34 
L 44.25252 81.728 
L 44.277 81.116 
L 44.277 80.504 
L 44.25252 79.892 
L 44.20356 79.28 
L 44.13012 78.668 
L 44.0322 78.056 
L 43.9098 77.444 
L 43.76292 76.832 
L 43.59156 76.22 
L 43.39572 75.608 
L 43.1754 74.996 
L 42.9306 74.384 
L 42.66132 73.772 
L 42.36756 73.16 
L 42.04932 72.548 
L 41.7066 71.936 
L 41.3394 71.324 
L 40.94772 70.712 
L 40.53156 70.1 
L 40.09092 69.488 
L 39.6258 68.876 
L 39.1362 68.264 
L 38.62212 67.652 
L 38.08356 67.04 
L 37.52052 66.428 
L 36.933 65.816 
" clip-path="url(#p475d3313d6)" style="fill: none; stroke: #000000; stroke-width: 2; stroke-linecap: round"/>
   </g>
   <g id="line2d_24">
    <path d="M 26.223 88.46 
L 42.36756 88.46 
" clip-path="url(#p475d3313d6)" style="fill: none; stroke: #000000; stroke-width: 2; stroke-linecap: round"/>
   </g>
   <g id="line2d_25">
    <path d="M 26.223 73.16 
L 42.36756 73.16 
" clip-path="url(#p475d3313d6)" style="fill: none; stroke: #000000; stroke-width: 2; stroke-linecap: round"/>
   </g>
   <g id="line2d_26">
    <path d="M 78.243 80.81 
L 88.953 80.81 
" clip-path="url(#p475d3313d6)" style="fill: none; stroke: #000000; stroke-width: 2; stroke-linecap: round"/>
   </g>
   <g id="line2d_27">
    <path d="M 93.543 65.51 
L 88.953 65.51 
L 88.953 80.81 
" clip-path="url(#p475d3313d6)" style="fill: none; stroke: #000000; stroke-width: 2; stroke-linecap: round"/>
   </g>
   <g id="line2d_28">
    <path d="M 154.743 96.11 
L 150.153 96.11 
L 150.153 57.86 
" clip-path="url(#p475d3313d6)" style="fill: none; stroke: #000000; stroke-width: 2; stroke-linecap: round"/>
   </g>
   <g id="line2d_29">
    <path d="M 102.723 164.654 
L 119.771571 164.554082 
L 121.520143 164.254327 
L 123.268714 163.754735 
L 125.017286 163.055306 
L 126.765857 162.156041 
L 128.951571 160.750939 
L 131.137286 159.033592 
L 133.323 157.004 
L 135.508714 154.662163 
L 137.694429 152.008082 
L 139.443 149.66 
L 139.443 149.66 
L 136.820143 146.212816 
L 134.634429 143.683633 
L 132.448714 141.466694 
L 130.263 139.562 
L 128.077286 137.969551 
L 125.891571 136.689347 
L 124.143 135.89 
L 122.394429 135.29049 
L 120.645857 134.890816 
L 118.897286 134.69098 
L 118.023 134.666 
L 102.723 134.666 
L 102.723 134.666 
L 104.9262 137.114 
L 106.32156 138.95 
L 107.4966 140.786 
L 108.45132 142.622 
L 109.18572 144.458 
L 109.6998 146.294 
L 109.99356 148.13 
L 110.067 149.966 
L 109.92012 151.802 
L 109.55292 153.638 
L 108.9654 155.474 
L 108.15756 157.31 
L 107.1294 159.146 
L 105.88092 160.982 
L 104.41212 162.818 
L 102.723 164.654 
L 102.723 164.654 
" clip-path="url(#p475d3313d6)" style="fill: none; stroke: #000000; stroke-width: 2; stroke-linecap: round"/>
   </g>
   <g id="line2d_30">
    <path d="M 98.133 164.654 
L 98.72052 164.042 
L 99.28356 163.43 
L 99.82212 162.818 
L 100.3362 162.206 
L 100.8258 161.594 
L 101.29092 160.982 
L 101.73156 160.37 
L 102.14772 159.758 
L 102.5394 159.146 
L 102.9066 158.534 
L 103.24932 157.922 
L 103.56756 157.31 
L 103.86132 156.698 
L 104.1306 156.086 
L 104.3754 155.474 
L 104.59572 154.862 
L 104.79156 154.25 
L 104.96292 153.638 
L 105.1098 153.026 
L 105.2322 152.414 
L 105.33012 151.802 
L 105.40356 151.19 
L 105.45252 150.578 
L 105.477 149.966 
L 105.477 149.354 
L 105.45252 148.742 
L 105.40356 148.13 
L 105.33012 147.518 
L 105.2322 146.906 
L 105.1098 146.294 
L 104.96292 145.682 
L 104.79156 145.07 
L 104.59572 144.458 
L 104.3754 143.846 
L 104.1306 143.234 
L 103.86132 142.622 
L 103.56756 142.01 
L 103.24932 141.398 
L 102.9066 140.786 
L 102.5394 140.174 
L 102.14772 139.562 
L 101.73156 138.95 
L 101.29092 138.338 
L 100.8258 137.726 
L 100.3362 137.114 
L 99.82212 136.502 
L 99.28356 135.89 
L 98.72052 135.278 
L 98.133 134.666 
" clip-path="url(#p475d3313d6)" style="fill: none; stroke: #000000; stroke-width: 2; stroke-linecap: round"/>
   </g>
   <g id="line2d_31">
    <path d="M 87.423 157.31 
L 103.56756 157.31 
" clip-path="url(#p475d3313d6)" style="fill: none; stroke: #000000; stroke-width: 2; stroke-linecap: round"/>
   </g>
   <g id="line2d_32">
    <path d="M 87.423 142.01 
L 103.56756 142.01 
" clip-path="url(#p475d3313d6)" style="fill: none; stroke: #000000; stroke-width: 2; stroke-linecap: round"/>
   </g>
   <g id="line2d_33">
    <path d="M 146.787 149.66 
L 150.153 149.66 
" clip-path="url(#p475d3313d6)" style="fill: none; stroke: #000000; stroke-width: 2; stroke-linecap: round"/>
   </g>
   <g id="line2d_34">
    <path d="M 41.523 141.704 
L 58.571571 141.604082 
L 60.320143 141.304327 
L 62.068714 140.804735 
L 63.817286 140.105306 
L 65.565857 139.206041 
L 67.751571 137.800939 
L 69.937286 136.083592 
L 72.123 134.054 
L 74.308714 131.712163 
L 76.494429 129.058082 
L 78.243 126.71 
L 78.243 126.71 
L 75.620143 123.262816 
L 73.434429 120.733633 
L 71.248714 118.516694 
L 69.063 116.612 
L 66.877286 115.019551 
L 64.691571 113.739347 
L 62.943 112.94 
L 61.194429 112.34049 
L 59.445857 111.940816 
L 57.697286 111.74098 
L 56.823 111.716 
L 41.523 111.716 
L 41.523 111.716 
L 43.7262 114.164 
L 45.12156 116 
L 46.2966 117.836 
L 47.25132 119.672 
L 47.98572 121.508 
L 48.4998 123.344 
L 48.79356 125.18 
L 48.867 127.016 
L 48.72012 128.852 
L 48.35292 130.688 
L 47.7654 132.524 
L 46.95756 134.36 
L 45.9294 136.196 
L 44.68092 138.032 
L 43.21212 139.868 
L 41.523 141.704 
L 41.523 141.704 
" clip-path="url(#p475d3313d6)" style="fill: none; stroke: #000000; stroke-width: 2; stroke-linecap: round"/>
   </g>
   <g id="line2d_35">
    <path d="M 30.813 134.36 
L 46.95756 134.36 
" clip-path="url(#p475d3313d6)" style="fill: none; stroke: #000000; stroke-width: 2; stroke-linecap: round"/>
   </g>
   <g id="line2d_36">
    <path d="M 30.813 119.06 
L 46.95756 119.06 
" clip-path="url(#p475d3313d6)" style="fill: none; stroke: #000000; stroke-width: 2; stroke-linecap: round"/>
   </g>
   <g id="line2d_37">
    <path d="M 85.587 126.71 
L 88.953 126.71 
" clip-path="url(#p475d3313d6)" style="fill: none; stroke: #000000; stroke-width: 2; stroke-linecap: round"/>
   </g>
   <g id="line2d_38">
    <path d="M 87.423 142.01 
L 88.953 142.01 
L 88.953 126.71 
" clip-path="url(#p475d3313d6)" style="fill: none; stroke: #000000; stroke-width: 2; stroke-linecap: round"/>
   </g>
   <g id="line2d_39">
    <path d="M 62.943 187.91 
L 63.923274 187.878565 
L 64.899521 187.784387 
L 65.867727 187.627855 
L 66.823915 187.409611 
L 67.764156 187.130553 
L 68.684585 186.791826 
L 69.581421 186.394824 
L 70.450979 185.941176 
L 71.289684 185.432748 
L 72.094091 184.871628 
L 72.860894 184.260123 
L 73.586943 183.600745 
L 74.269253 182.896204 
L 74.905022 182.149394 
L 75.491635 181.363385 
L 76.026684 180.541406 
L 76.507969 179.686836 
L 76.933513 178.803185 
L 77.301567 177.894085 
L 77.610618 176.963272 
L 77.859397 176.01457 
L 78.046881 175.051878 
L 78.1723 174.079152 
L 78.235139 173.100389 
L 78.235139 172.119611 
L 78.1723 171.140848 
L 78.046881 170.168122 
L 77.859397 169.20543 
L 77.610618 168.256728 
L 77.301567 167.325915 
L 76.933513 166.416815 
L 76.507969 165.533164 
L 76.026684 164.678594 
L 75.491635 163.856615 
L 74.905022 163.070606 
L 74.269253 162.323796 
L 73.586943 161.619255 
L 72.860894 160.959877 
L 72.094091 160.348372 
L 71.289684 159.787252 
L 70.450979 159.278824 
L 69.581421 158.825176 
L 68.684585 158.428174 
L 67.764156 158.089447 
L 66.823915 157.810389 
L 65.867727 157.592145 
L 64.899521 157.435613 
L 63.923274 157.341435 
L 62.943 157.31 
L 62.943 157.31 
L 43.053 157.31 
L 43.053 172.61 
L 43.053 187.91 
L 62.943 187.91 
" clip-path="url(#p475d3313d6)" style="fill: none; stroke: #000000; stroke-width: 2; stroke-linecap: round"/>
   </g>
   <g id="line2d_40">
    <path d="M 32.343 180.26 
L 43.053 180.26 
" clip-path="url(#p475d3313d6)" style="fill: none; stroke: #000000; stroke-width: 2; stroke-linecap: round"/>
   </g>
   <g id="line2d_41">
    <path d="M 32.343 164.96 
L 43.053 164.96 
" clip-path="url(#p475d3313d6)" style="fill: none; stroke: #000000; stroke-width: 2; stroke-linecap: round"/>
   </g>
   <g id="line2d_42">
    <path d="M 78.243 172.61 
L 88.953 172.61 
" clip-path="url(#p475d3313d6)" style="fill: none; stroke: #000000; stroke-width: 2; stroke-linecap: round"/>
   </g>
   <g id="line2d_43">
    <path d="M 87.423 157.31 
L 88.953 157.31 
L 88.953 172.61 
" clip-path="url(#p475d3313d6)" style="fill: none; stroke: #000000; stroke-width: 2; stroke-linecap: round"/>
   </g>
   <g id="line2d_44">
    <path d="M 154.743 111.41 
L 150.153 111.41 
L 150.153 149.66 
" clip-path="url(#p475d3313d6)" style="fill: none; stroke: #000000; stroke-width: 2; stroke-linecap: round"/>
   </g>
   <g id="line2d_45">
    <path d="M 215.943 107.585 
L 211.353 107.585 
L 211.353 103.76 
" clip-path="url(#p475d3313d6)" style="fill: none; stroke: #000000; stroke-width: 2; stroke-linecap: round"/>
   </g>
   <g id="line2d_46">
    <path d="M 277.143 159.2225 
L 272.553 159.2225 
L 272.553 115.235 
" clip-path="url(#p475d3313d6)" style="fill: none; stroke: #000000; stroke-width: 2; stroke-linecap: round"/>
   </g>
   <g id="line2d_47">
    <path d="M 225.123 233.504 
L 242.171571 233.404082 
L 243.920143 233.104327 
L 245.668714 232.604735 
L 247.417286 231.905306 
L 249.165857 231.006041 
L 251.351571 229.600939 
L 253.537286 227.883592 
L 255.723 225.854 
L 257.908714 223.512163 
L 260.094429 220.858082 
L 261.843 218.51 
L 261.843 218.51 
L 259.220143 215.062816 
L 257.034429 212.533633 
L 254.848714 210.316694 
L 252.663 208.412 
L 250.477286 206.819551 
L 248.291571 205.539347 
L 246.543 204.74 
L 244.794429 204.14049 
L 243.045857 203.740816 
L 241.297286 203.54098 
L 240.423 203.516 
L 225.123 203.516 
L 225.123 203.516 
L 227.3262 205.964 
L 228.72156 207.8 
L 229.8966 209.636 
L 230.85132 211.472 
L 231.58572 213.308 
L 232.0998 215.144 
L 232.39356 216.98 
L 232.467 218.816 
L 232.32012 220.652 
L 231.95292 222.488 
L 231.3654 224.324 
L 230.55756 226.16 
L 229.5294 227.996 
L 228.28092 229.832 
L 226.81212 231.668 
L 225.123 233.504 
L 225.123 233.504 
" clip-path="url(#p475d3313d6)" style="fill: none; stroke: #000000; stroke-width: 2; stroke-linecap: round"/>
   </g>
   <g id="line2d_48">
    <path d="M 220.533 233.504 
L 221.12052 232.892 
L 221.68356 232.28 
L 222.22212 231.668 
L 222.7362 231.056 
L 223.2258 230.444 
L 223.69092 229.832 
L 224.13156 229.22 
L 224.54772 228.608 
L 224.9394 227.996 
L 225.3066 227.384 
L 225.64932 226.772 
L 225.96756 226.16 
L 226.26132 225.548 
L 226.5306 224.936 
L 226.7754 224.324 
L 226.99572 223.712 
L 227.19156 223.1 
L 227.36292 222.488 
L 227.5098 221.876 
L 227.6322 221.264 
L 227.73012 220.652 
L 227.80356 220.04 
L 227.85252 219.428 
L 227.877 218.816 
L 227.877 218.204 
L 227.85252 217.592 
L 227.80356 216.98 
L 227.73012 216.368 
L 227.6322 215.756 
L 227.5098 215.144 
L 227.36292 214.532 
L 227.19156 213.92 
L 226.99572 213.308 
L 226.7754 212.696 
L 226.5306 212.084 
L 226.26132 211.472 
L 225.96756 210.86 
L 225.64932 210.248 
L 225.3066 209.636 
L 224.9394 209.024 
L 224.54772 208.412 
L 224.13156 207.8 
L 223.69092 207.188 
L 223.2258 206.576 
L 222.7362 205.964 
L 222.22212 205.352 
L 221.68356 204.74 
L 221.12052 204.128 
L 220.533 203.516 
" clip-path="url(#p475d3313d6)" style="fill: none; stroke: #000000; stroke-width: 2; stroke-linecap: round"/>
   </g>
   <g id="line2d_49">
    <path d="M 209.823 226.16 
L 225.96756 226.16 
" clip-path="url(#p475d3313d6)" style="fill: none; stroke: #000000; stroke-width: 2; stroke-linecap: round"/>
   </g>
   <g id="line2d_50">
    <path d="M 209.823 210.86 
L 225.96756 210.86 
" clip-path="url(#p475d3313d6)" style="fill: none; stroke: #000000; stroke-width: 2; stroke-linecap: round"/>
   </g>
   <g id="line2d_51">
    <path d="M 269.187 218.51 
L 272.553 218.51 
" clip-path="url(#p475d3313d6)" style="fill: none; stroke: #000000; stroke-width: 2; stroke-linecap: round"/>
   </g>
   <g id="line2d_52">
    <path d="M 163.923 210.554 
L 180.971571 210.454082 
L 182.720143 210.154327 
L 184.468714 209.654735 
L 186.217286 208.955306 
L 187.965857 208.056041 
L 190.151571 206.650939 
L 192.337286 204.933592 
L 194.523 202.904 
L 196.708714 200.562163 
L 198.894429 197.908082 
L 200.643 195.56 
L 200.643 195.56 
L 198.020143 192.112816 
L 195.834429 189.583633 
L 193.648714 187.366694 
L 191.463 185.462 
L 189.277286 183.869551 
L 187.091571 182.589347 
L 185.343 181.79 
L 183.594429 181.19049 
L 181.845857 180.790816 
L 180.097286 180.59098 
L 179.223 180.566 
L 163.923 180.566 
L 163.923 180.566 
L 166.1262 183.014 
L 167.52156 184.85 
L 168.6966 186.686 
L 169.65132 188.522 
L 170.38572 190.358 
L 170.8998 192.194 
L 171.19356 194.03 
L 171.267 195.866 
L 171.12012 197.702 
L 170.75292 199.538 
L 170.1654 201.374 
L 169.35756 203.21 
L 168.3294 205.046 
L 167.08092 206.882 
L 165.61212 208.718 
L 163.923 210.554 
L 163.923 210.554 
" clip-path="url(#p475d3313d6)" style="fill: none; stroke: #000000; stroke-width: 2; stroke-linecap: round"/>
   </g>
   <g id="line2d_53">
    <path d="M 159.333 210.554 
L 159.92052 209.942 
L 160.48356 209.33 
L 161.02212 208.718 
L 161.5362 208.106 
L 162.0258 207.494 
L 162.49092 206.882 
L 162.93156 206.27 
L 163.34772 205.658 
L 163.7394 205.046 
L 164.1066 204.434 
L 164.44932 203.822 
L 164.76756 203.21 
L 165.06132 202.598 
L 165.3306 201.986 
L 165.5754 201.374 
L 165.79572 200.762 
L 165.99156 200.15 
L 166.16292 199.538 
L 166.3098 198.926 
L 166.4322 198.314 
L 166.53012 197.702 
L 166.60356 197.09 
L 166.65252 196.478 
L 166.677 195.866 
L 166.677 195.254 
L 166.65252 194.642 
L 166.60356 194.03 
L 166.53012 193.418 
L 166.4322 192.806 
L 166.3098 192.194 
L 166.16292 191.582 
L 165.99156 190.97 
L 165.79572 190.358 
L 165.5754 189.746 
L 165.3306 189.134 
L 165.06132 188.522 
L 164.76756 187.91 
L 164.44932 187.298 
L 164.1066 186.686 
L 163.7394 186.074 
L 163.34772 185.462 
L 162.93156 184.85 
L 162.49092 184.238 
L 162.0258 183.626 
L 161.5362 183.014 
L 161.02212 182.402 
L 160.48356 181.79 
L 159.92052 181.178 
L 159.333 180.566 
" clip-path="url(#p475d3313d6)" style="fill: none; stroke: #000000; stroke-width: 2; stroke-linecap: round"/>
   </g>
   <g id="line2d_54">
    <path d="M 148.623 203.21 
L 164.76756 203.21 
" clip-path="url(#p475d3313d6)" style="fill: none; stroke: #000000; stroke-width: 2; stroke-linecap: round"/>
   </g>
   <g id="line2d_55">
    <path d="M 148.623 187.91 
L 164.76756 187.91 
" clip-path="url(#p475d3313d6)" style="fill: none; stroke: #000000; stroke-width: 2; stroke-linecap: round"/>
   </g>
   <g id="line2d_56">
    <path d="M 200.643 195.56 
L 211.353 195.56 
" clip-path="url(#p475d3313d6)" style="fill: none; stroke: #000000; stroke-width: 2; stroke-linecap: round"/>
   </g>
   <g id="line2d_57">
    <path d="M 102.723 222.029 
L 119.771571 221.929082 
L 121.520143 221.629327 
L 123.268714 221.129735 
L 125.017286 220.430306 
L 126.765857 219.531041 
L 128.951571 218.125939 
L 131.137286 216.408592 
L 133.323 214.379 
L 135.508714 212.037163 
L 137.694429 209.383082 
L 139.443 207.035 
L 139.443 207.035 
L 136.820143 203.587816 
L 134.634429 201.058633 
L 132.448714 198.841694 
L 130.263 196.937 
L 128.077286 195.344551 
L 125.891571 194.064347 
L 124.143 193.265 
L 122.394429 192.66549 
L 120.645857 192.265816 
L 118.897286 192.06598 
L 118.023 192.041 
L 102.723 192.041 
L 102.723 192.041 
L 104.9262 194.489 
L 106.32156 196.325 
L 107.4966 198.161 
L 108.45132 199.997 
L 109.18572 201.833 
L 109.6998 203.669 
L 109.99356 205.505 
L 110.067 207.341 
L 109.92012 209.177 
L 109.55292 211.013 
L 108.9654 212.849 
L 108.15756 214.685 
L 107.1294 216.521 
L 105.88092 218.357 
L 104.41212 220.193 
L 102.723 222.029 
L 102.723 222.029 
" clip-path="url(#p475d3313d6)" style="fill: none; stroke: #000000; stroke-width: 2; stroke-linecap: round"/>
   </g>
   <g id="line2d_58">
    <path d="M 92.013 214.685 
L 108.15756 214.685 
" clip-path="url(#p475d3313d6)" style="fill: none; stroke: #000000; stroke-width: 2; stroke-linecap: round"/>
   </g>
   <g id="line2d_59">
    <path d="M 92.013 199.385 
L 108.15756 199.385 
" clip-path="url(#p475d3313d6)" style="fill: none; stroke: #000000; stroke-width: 2; stroke-linecap: round"/>
   </g>
   <g id="line2d_60">
    <path d="M 146.787 207.035 
L 150.153 207.035 
" clip-path="url(#p475d3313d6)" style="fill: none; stroke: #000000; stroke-width: 2; stroke-linecap: round"/>
   </g>
   <g id="line2d_61">
    <path d="M 148.623 203.21 
L 150.153 203.21 
L 150.153 207.035 
" clip-path="url(#p475d3313d6)" style="fill: none; stroke: #000000; stroke-width: 2; stroke-linecap: round"/>
   </g>
   <g id="line2d_62">
    <path d="M 209.823 210.86 
L 211.353 210.86 
L 211.353 195.56 
" clip-path="url(#p475d3313d6)" style="fill: none; stroke: #000000; stroke-width: 2; stroke-linecap: round"/>
   </g>
   <g id="line2d_63">
    <path d="M 185.343 256.76 
L 186.323274 256.728565 
L 187.299521 256.634387 
L 188.267727 256.477855 
L 189.223915 256.259611 
L 190.164156 255.980553 
L 191.084585 255.641826 
L 191.981421 255.244824 
L 192.850979 254.791176 
L 193.689684 254.282748 
L 194.494091 253.721628 
L 195.260894 253.110123 
L 195.986943 252.450745 
L 196.669253 251.746204 
L 197.305022 250.999394 
L 197.891635 250.213385 
L 198.426684 249.391406 
L 198.907969 248.536836 
L 199.333513 247.653185 
L 199.701567 246.744085 
L 200.010618 245.813272 
L 200.259397 244.86457 
L 200.446881 243.901878 
L 200.5723 242.929152 
L 200.635139 241.950389 
L 200.635139 240.969611 
L 200.5723 239.990848 
L 200.446881 239.018122 
L 200.259397 238.05543 
L 200.010618 237.106728 
L 199.701567 236.175915 
L 199.333513 235.266815 
L 198.907969 234.383164 
L 198.426684 233.528594 
L 197.891635 232.706615 
L 197.305022 231.920606 
L 196.669253 231.173796 
L 195.986943 230.469255 
L 195.260894 229.809877 
L 194.494091 229.198372 
L 193.689684 228.637252 
L 192.850979 228.128824 
L 191.981421 227.675176 
L 191.084585 227.278174 
L 190.164156 226.939447 
L 189.223915 226.660389 
L 188.267727 226.442145 
L 187.299521 226.285613 
L 186.323274 226.191435 
L 185.343 226.16 
L 185.343 226.16 
L 165.453 226.16 
L 165.453 241.46 
L 165.453 256.76 
L 185.343 256.76 
" clip-path="url(#p475d3313d6)" style="fill: none; stroke: #000000; stroke-width: 2; stroke-linecap: round"/>
   </g>
   <g id="line2d_64">
    <path d="M 154.743 249.11 
L 165.453 249.11 
" clip-path="url(#p475d3313d6)" style="fill: none; stroke: #000000; stroke-width: 2; stroke-linecap: round"/>
   </g>
   <g id="line2d_65">
    <path d="M 154.743 233.81 
L 165.453 233.81 
" clip-path="url(#p475d3313d6)" style="fill: none; stroke: #000000; stroke-width: 2; stroke-linecap: round"/>
   </g>
   <g id="line2d_66">
    <path d="M 200.643 241.46 
L 211.353 241.46 
" clip-path="url(#p475d3313d6)" style="fill: none; stroke: #000000; stroke-width: 2; stroke-linecap: round"/>
   </g>
   <g id="line2d_67">
    <path d="M 102.723 267.929 
L 119.771571 267.829082 
L 121.520143 267.529327 
L 123.268714 267.029735 
L 125.017286 266.330306 
L 126.765857 265.431041 
L 128.951571 264.025939 
L 131.137286 262.308592 
L 133.323 260.279 
L 135.508714 257.937163 
L 137.694429 255.283082 
L 139.443 252.935 
L 139.443 252.935 
L 136.820143 249.487816 
L 134.634429 246.958633 
L 132.448714 244.741694 
L 130.263 242.837 
L 128.077286 241.244551 
L 125.891571 239.964347 
L 124.143 239.165 
L 122.394429 238.56549 
L 120.645857 238.165816 
L 118.897286 237.96598 
L 118.023 237.941 
L 102.723 237.941 
L 102.723 237.941 
L 104.9262 240.389 
L 106.32156 242.225 
L 107.4966 244.061 
L 108.45132 245.897 
L 109.18572 247.733 
L 109.6998 249.569 
L 109.99356 251.405 
L 110.067 253.241 
L 109.92012 255.077 
L 109.55292 256.913 
L 108.9654 258.749 
L 108.15756 260.585 
L 107.1294 262.421 
L 105.88092 264.257 
L 104.41212 266.093 
L 102.723 267.929 
L 102.723 267.929 
" clip-path="url(#p475d3313d6)" style="fill: none; stroke: #000000; stroke-width: 2; stroke-linecap: round"/>
   </g>
   <g id="line2d_68">
    <path d="M 92.013 260.585 
L 108.15756 260.585 
" clip-path="url(#p475d3313d6)" style="fill: none; stroke: #000000; stroke-width: 2; stroke-linecap: round"/>
   </g>
   <g id="line2d_69">
    <path d="M 92.013 245.285 
L 108.15756 245.285 
" clip-path="url(#p475d3313d6)" style="fill: none; stroke: #000000; stroke-width: 2; stroke-linecap: round"/>
   </g>
   <g id="line2d_70">
    <path d="M 139.443 252.935 
L 150.153 252.935 
" clip-path="url(#p475d3313d6)" style="fill: none; stroke: #000000; stroke-width: 2; stroke-linecap: round"/>
   </g>
   <g id="line2d_71">
    <path d="M 154.743 249.11 
L 150.153 249.11 
L 150.153 252.935 
" clip-path="url(#p475d3313d6)" style="fill: none; stroke: #000000; stroke-width: 2; stroke-linecap: round"/>
   </g>
   <g id="line2d_72">
    <path d="M 209.823 226.16 
L 211.353 226.16 
L 211.353 241.46 
" clip-path="url(#p475d3313d6)" style="fill: none; stroke: #000000; stroke-width: 2; stroke-linecap: round"/>
   </g>
   <g id="line2d_73">
    <path d="M 277.143 174.5225 
L 272.553 174.5225 
L 272.553 218.51 
" clip-path="url(#p475d3313d6)" style="fill: none; stroke: #000000; stroke-width: 2; stroke-linecap: round"/>
   </g>
   <g id="text_1">
    <g clip-path="url(#p475d3313d6)">
     <!-- $y$ -->
     <g transform="translate(336.813 170.296328)scale(0.125 -0.125)">
      <defs>
       <path id="DejaVuSans-Oblique-79" d="M 1588 -325 
Q 1188 -997 936 -1164 
Q 684 -1331 294 -1331 
L -159 -1331 
L -63 -850 
L 269 -850 
Q 509 -850 678 -719 
Q 847 -588 1056 -206 
L 1234 128 
L 459 3500 
L 1069 3500 
L 1650 819 
L 3256 3500 
L 3859 3500 
L 1588 -325 
z
" transform="scale(0.015625)"/>
      </defs>
      <use xlink:href="#DejaVuSans-Oblique-79" transform="translate(0 0.3125)"/>
     </g>
    </g>
   </g>
   <g id="text_2">
    <g clip-path="url(#p475d3313d6)">
     <!-- ZERO -->
     <g transform="translate(177.896672 126.334219)scale(0.125 -0.125)">
      <defs>
       <path id="DejaVuSans-5a" d="M 359 4666 
L 4025 4666 
L 4025 4184 
L 1075 531 
L 4097 531 
L 4097 0 
L 288 0 
L 288 481 
L 3238 4134 
L 359 4134 
L 359 4666 
z
" transform="scale(0.015625)"/>
       <path id="DejaVuSans-45" d="M 628 4666 
L 3578 4666 
L 3578 4134 
L 1259 4134 
L 1259 2753 
L 3481 2753 
L 3481 2222 
L 1259 2222 
L 1259 531 
L 3634 531 
L 3634 0 
L 628 0 
L 628 4666 
z
" transform="scale(0.015625)"/>
       <path id="DejaVuSans-52" d="M 2841 2188 
Q 3044 2119 3236 1894 
Q 3428 1669 3622 1275 
L 4263 0 
L 3584 0 
L 2988 1197 
Q 2756 1666 2539 1819 
Q 2322 1972 1947 1972 
L 1259 1972 
L 1259 0 
L 628 0 
L 628 4666 
L 2053 4666 
Q 2853 4666 3247 4331 
Q 3641 3997 3641 3322 
Q 3641 2881 3436 2590 
Q 3231 2300 2841 2188 
z
M 1259 4147 
L 1259 2491 
L 2053 2491 
Q 2509 2491 2742 2702 
Q 2975 2913 2975 3322 
Q 2975 3731 2742 3939 
Q 2509 4147 2053 4147 
L 1259 4147 
z
" transform="scale(0.015625)"/>
       <path id="DejaVuSans-4f" d="M 2522 4238 
Q 1834 4238 1429 3725 
Q 1025 3213 1025 2328 
Q 1025 1447 1429 934 
Q 1834 422 2522 422 
Q 3209 422 3611 934 
Q 4013 1447 4013 2328 
Q 4013 3213 3611 3725 
Q 3209 4238 2522 4238 
z
M 2522 4750 
Q 3503 4750 4090 4092 
Q 4678 3434 4678 2328 
Q 4678 1225 4090 567 
Q 3503 -91 2522 -91 
Q 1538 -91 948 565 
Q 359 1222 359 2328 
Q 359 3434 948 4092 
Q 1538 4750 2522 4750 
z
" transform="scale(0.015625)"/>
      </defs>
      <use xlink:href="#DejaVuSans-5a"/>
      <use xlink:href="#DejaVuSans-45" x="68.505859"/>
      <use xlink:href="#DejaVuSans-52" x="131.689453"/>
      <use xlink:href="#DejaVuSans-4f" x="201.171875"/>
     </g>
    </g>
   </g>
   <g id="text_3">
    <g clip-path="url(#p475d3313d6)">
     <!-- a -->
     <g transform="translate(20.092844 30.709219)scale(0.125 -0.125)">
      <defs>
       <path id="DejaVuSans-61" d="M 2194 1759 
Q 1497 1759 1228 1600 
Q 959 1441 959 1056 
Q 959 750 1161 570 
Q 1363 391 1709 391 
Q 2188 391 2477 730 
Q 2766 1069 2766 1631 
L 2766 1759 
L 2194 1759 
z
M 3341 1997 
L 3341 0 
L 2766 0 
L 2766 531 
Q 2569 213 2275 61 
Q 1981 -91 1556 -91 
Q 1019 -91 701 211 
Q 384 513 384 1019 
Q 384 1609 779 1909 
Q 1175 2209 1959 2209 
L 2766 2209 
L 2766 2266 
Q 2766 2663 2505 2880 
Q 2244 3097 1772 3097 
Q 1472 3097 1187 3025 
Q 903 2953 641 2809 
L 641 3341 
Q 956 3463 1253 3523 
Q 1550 3584 1831 3584 
Q 2591 3584 2966 3190 
Q 3341 2797 3341 1997 
z
" transform="scale(0.015625)"/>
      </defs>
      <use xlink:href="#DejaVuSans-61"/>
     </g>
    </g>
   </g>
   <g id="text_4">
    <g clip-path="url(#p475d3313d6)">
     <!-- b -->
     <g transform="translate(19.817453 46.009219)scale(0.125 -0.125)">
      <defs>
       <path id="DejaVuSans-62" d="M 3116 1747 
Q 3116 2381 2855 2742 
Q 2594 3103 2138 3103 
Q 1681 3103 1420 2742 
Q 1159 2381 1159 1747 
Q 1159 1113 1420 752 
Q 1681 391 2138 391 
Q 2594 391 2855 752 
Q 3116 1113 3116 1747 
z
M 1159 2969 
Q 1341 3281 1617 3432 
Q 1894 3584 2278 3584 
Q 2916 3584 3314 3078 
Q 3713 2572 3713 1747 
Q 3713 922 3314 415 
Q 2916 -91 2278 -91 
Q 1894 -91 1617 61 
Q 1341 213 1159 525 
L 1159 0 
L 581 0 
L 581 4863 
L 1159 4863 
L 1159 2969 
z
" transform="scale(0.015625)"/>
      </defs>
      <use xlink:href="#DejaVuSans-62"/>
     </g>
    </g>
   </g>
   <g id="text_5">
    <g clip-path="url(#p475d3313d6)">
     <!-- e -->
     <g transform="translate(15.471594 76.609219)scale(0.125 -0.125)">
      <defs>
       <path id="DejaVuSans-65" d="M 3597 1894 
L 3597 1613 
L 953 1613 
Q 991 1019 1311 708 
Q 1631 397 2203 397 
Q 2534 397 2845 478 
Q 3156 559 3463 722 
L 3463 178 
Q 3153 47 2828 -22 
Q 2503 -91 2169 -91 
Q 1331 -91 842 396 
Q 353 884 353 1716 
Q 353 2575 817 3079 
Q 1281 3584 2069 3584 
Q 2775 3584 3186 3129 
Q 3597 2675 3597 1894 
z
M 3022 2063 
Q 3016 2534 2758 2815 
Q 2500 3097 2075 3097 
Q 1594 3097 1305 2825 
Q 1016 2553 972 2059 
L 3022 2063 
z
" transform="scale(0.015625)"/>
      </defs>
      <use xlink:href="#DejaVuSans-65"/>
     </g>
    </g>
   </g>
   <g id="text_6">
    <g clip-path="url(#p475d3313d6)">
     <!-- f -->
     <g transform="translate(18.762609 91.909219)scale(0.125 -0.125)">
      <defs>
       <path id="DejaVuSans-66" d="M 2375 4863 
L 2375 4384 
L 1825 4384 
Q 1516 4384 1395 4259 
Q 1275 4134 1275 3809 
L 1275 3500 
L 2222 3500 
L 2222 3053 
L 1275 3053 
L 1275 0 
L 697 0 
L 697 3053 
L 147 3053 
L 147 3500 
L 697 3500 
L 697 3744 
Q 697 4328 969 4595 
Q 1241 4863 1831 4863 
L 2375 4863 
z
" transform="scale(0.015625)"/>
      </defs>
      <use xlink:href="#DejaVuSans-66"/>
     </g>
    </g>
   </g>
   <g id="text_7">
    <g clip-path="url(#p475d3313d6)">
     <!-- a -->
     <g transform="translate(20.092844 122.509219)scale(0.125 -0.125)">
      <use xlink:href="#DejaVuSans-61"/>
     </g>
    </g>
   </g>
   <g id="text_8">
    <g clip-path="url(#p475d3313d6)">
     <!-- b -->
     <g transform="translate(19.817453 137.809219)scale(0.125 -0.125)">
      <use xlink:href="#DejaVuSans-62"/>
     </g>
    </g>
   </g>
   <g id="text_9">
    <g clip-path="url(#p475d3313d6)">
     <!-- g -->
     <g transform="translate(21.347453 168.409219)scale(0.125 -0.125)">
      <defs>
       <path id="DejaVuSans-67" d="M 2906 1791 
Q 2906 2416 2648 2759 
Q 2391 3103 1925 3103 
Q 1463 3103 1205 2759 
Q 947 2416 947 1791 
Q 947 1169 1205 825 
Q 1463 481 1925 481 
Q 2391 481 2648 825 
Q 2906 1169 2906 1791 
z
M 3481 434 
Q 3481 -459 3084 -895 
Q 2688 -1331 1869 -1331 
Q 1566 -1331 1297 -1286 
Q 1028 -1241 775 -1147 
L 775 -588 
Q 1028 -725 1275 -790 
Q 1522 -856 1778 -856 
Q 2344 -856 2625 -561 
Q 2906 -266 2906 331 
L 2906 616 
Q 2728 306 2450 153 
Q 2172 0 1784 0 
Q 1141 0 747 490 
Q 353 981 353 1791 
Q 353 2603 747 3093 
Q 1141 3584 1784 3584 
Q 2172 3584 2450 3431 
Q 2728 3278 2906 2969 
L 2906 3500 
L 3481 3500 
L 3481 434 
z
" transform="scale(0.015625)"/>
      </defs>
      <use xlink:href="#DejaVuSans-67"/>
     </g>
    </g>
   </g>
   <g id="text_10">
    <g clip-path="url(#p475d3313d6)">
     <!-- h -->
     <g transform="translate(21.361125 183.709219)scale(0.125 -0.125)">
      <defs>
       <path id="DejaVuSans-68" d="M 3513 2113 
L 3513 0 
L 2938 0 
L 2938 2094 
Q 2938 2591 2744 2837 
Q 2550 3084 2163 3084 
Q 1697 3084 1428 2787 
Q 1159 2491 1159 1978 
L 1159 0 
L 581 0 
L 581 4863 
L 1159 4863 
L 1159 2956 
Q 1366 3272 1645 3428 
Q 1925 3584 2291 3584 
Q 2894 3584 3203 3211 
Q 3513 2838 3513 2113 
z
" transform="scale(0.015625)"/>
      </defs>
      <use xlink:href="#DejaVuSans-68"/>
     </g>
    </g>
   </g>
   <g id="text_11">
    <g clip-path="url(#p475d3313d6)">
     <!-- d -->
     <g transform="translate(137.627453 191.359219)scale(0.125 -0.125)">
      <defs>
       <path id="DejaVuSans-64" d="M 2906 2969 
L 2906 4863 
L 3481 4863 
L 3481 0 
L 2906 0 
L 2906 525 
Q 2725 213 2448 61 
Q 2172 -91 1784 -91 
Q 1150 -91 751 415 
Q 353 922 353 1747 
Q 353 2572 751 3078 
Q 1150 3584 1784 3584 
Q 2172 3584 2448 3432 
Q 2725 3281 2906 2969 
z
M 947 1747 
Q 947 1113 1208 752 
Q 1469 391 1925 391 
Q 2381 391 2643 752 
Q 2906 1113 2906 1747 
Q 2906 2381 2643 2742 
Q 2381 3103 1925 3103 
Q 1469 3103 1208 2742 
Q 947 2381 947 1747 
z
" transform="scale(0.015625)"/>
      </defs>
      <use xlink:href="#DejaVuSans-64"/>
     </g>
    </g>
   </g>
   <g id="text_12">
    <g clip-path="url(#p475d3313d6)">
     <!-- a -->
     <g transform="translate(81.292844 202.834219)scale(0.125 -0.125)">
      <use xlink:href="#DejaVuSans-61"/>
     </g>
    </g>
   </g>
   <g id="text_13">
    <g clip-path="url(#p475d3313d6)">
     <!-- b -->
     <g transform="translate(81.017453 218.134219)scale(0.125 -0.125)">
      <use xlink:href="#DejaVuSans-62"/>
     </g>
    </g>
   </g>
   <g id="text_14">
    <g clip-path="url(#p475d3313d6)">
     <!-- a -->
     <g transform="translate(144.022844 237.259219)scale(0.125 -0.125)">
      <use xlink:href="#DejaVuSans-61"/>
     </g>
    </g>
   </g>
   <g id="text_15">
    <g clip-path="url(#p475d3313d6)">
     <!-- c -->
     <g transform="translate(82.079953 248.734219)scale(0.125 -0.125)">
      <defs>
       <path id="DejaVuSans-63" d="M 3122 3366 
L 3122 2828 
Q 2878 2963 2633 3030 
Q 2388 3097 2138 3097 
Q 1578 3097 1268 2742 
Q 959 2388 959 1747 
Q 959 1106 1268 751 
Q 1578 397 2138 397 
Q 2388 397 2633 464 
Q 2878 531 3122 666 
L 3122 134 
Q 2881 22 2623 -34 
Q 2366 -91 2075 -91 
Q 1284 -91 818 406 
Q 353 903 353 1747 
Q 353 2603 823 3093 
Q 1294 3584 2113 3584 
Q 2378 3584 2631 3529 
Q 2884 3475 3122 3366 
z
" transform="scale(0.015625)"/>
      </defs>
      <use xlink:href="#DejaVuSans-63"/>
     </g>
    </g>
   </g>
   <g id="text_16">
    <g clip-path="url(#p475d3313d6)">
     <!-- d -->
     <g transform="translate(81.017453 264.034219)scale(0.125 -0.125)">
      <use xlink:href="#DejaVuSans-64"/>
     </g>
    </g>
   </g>
  </g>
 </g>
 <defs>
  <clipPath id="p475d3313d6">
   <rect x="7.2" y="7.2" width="350.982" height="267.325"/>
  </clipPath>
 </defs>
</svg>
